<svg data-v-423bf9ae="" xmlns="http://www.w3.org/2000/svg" viewBox="0 0 353 90" class="iconLeft"><!----><!----><!----><g data-v-423bf9ae="" id="3c4fb1f5-a3c3-4ba3-9cfc-cd2e461f9db0" fill="#554C4C" transform="matrix(5.988023678532963,0,0,5.988023678532963,106.22640145354096,-1.1077845147282943)"><path d="M10.15 7.63L5.95 7.63L5.95 8.36L9.34 8.36C9.21 9.42 8.80 10.29 8.13 10.97C7.45 11.65 6.58 11.98 5.53 11.98C4.35 11.98 3.38 11.58 2.60 10.77C1.82 9.97 1.43 8.94 1.43 7.70C1.43 6.44 1.82 5.41 2.61 4.61C3.40 3.81 4.37 3.42 5.53 3.42C6.26 3.42 6.93 3.59 7.56 3.93C8.19 4.27 8.66 4.70 8.97 5.24L9.53 4.75C8.68 3.37 7.35 2.69 5.53 2.69C4.16 2.69 3.00 3.16 2.05 4.11C1.10 5.06 0.63 6.25 0.63 7.70C0.63 9.15 1.10 10.34 2.05 11.29C3.00 12.24 4.16 12.71 5.53 12.71C6.93 12.71 8.05 12.23 8.89 11.27C9.73 10.31 10.15 9.10 10.15 7.63ZM12.04 2.80L12.04 12.60L16.66 12.60L16.66 11.87L12.81 11.87L12.81 2.80ZM17.71 7.70C17.71 6.47 18.10 5.45 18.89 4.63C19.68 3.82 20.65 3.42 21.80 3.42C22.95 3.42 23.91 3.82 24.70 4.63C25.49 5.45 25.89 6.47 25.89 7.70C25.89 8.93 25.49 9.95 24.70 10.77C23.91 11.58 22.95 11.98 21.80 11.98C20.65 11.98 19.68 11.58 18.89 10.77C18.10 9.95 17.71 8.93 17.71 7.70ZM16.94 7.70C16.94 9.15 17.41 10.34 18.34 11.29C19.27 12.24 20.43 12.71 21.80 12.71C23.17 12.71 24.32 12.24 25.26 11.29C26.19 10.34 26.66 9.15 26.66 7.70C26.66 6.25 26.19 5.06 25.26 4.11C24.32 3.16 23.17 2.69 21.80 2.69C20.43 2.69 19.27 3.16 18.34 4.11C17.41 5.06 16.94 6.25 16.94 7.70ZM28.48 2.80L28.48 12.60L30.72 12.60C31.78 12.60 32.60 12.37 33.18 11.91C33.76 11.45 34.05 10.77 34.05 9.87C34.05 9.20 33.86 8.63 33.48 8.18C33.10 7.72 32.59 7.40 31.95 7.22C32.97 6.92 33.49 6.21 33.49 5.11C33.49 4.40 33.23 3.84 32.70 3.42C32.18 3.01 31.43 2.80 30.44 2.80ZM29.25 6.92L29.25 3.53L30.44 3.53C31.96 3.53 32.72 4.08 32.72 5.18C32.72 5.70 32.50 6.12 32.06 6.44C31.62 6.76 31.08 6.92 30.44 6.92ZM29.25 7.64L30.72 7.64C31.41 7.64 32.00 7.83 32.49 8.20C32.99 8.57 33.24 9.10 33.24 9.80C33.24 11.18 32.40 11.87 30.72 11.87L29.25 11.87ZM36.78 7.64L40.91 7.64L40.91 6.92L36.78 6.92L36.78 3.53L41.19 3.53L41.19 2.80L36.01 2.80L36.01 12.60L41.19 12.60L41.19 11.87L36.78 11.87Z"></path></g><!----><g data-v-423bf9ae="" id="cfd5acc4-3701-4d19-a81d-07b62d4c5722" transform="matrix(1.144062951548733,0,0,1.144062951548733,-11.536147760542121,-11.536575493976216)" stroke="none" fill="#C30C21"><path d="M50.024 10.667L50 10.666l-.024.001C28.298 10.681 10.667 28.32 10.667 50c0 21.688 17.645 39.333 39.333 39.333S89.333 71.688 89.333 50c0-21.68-17.631-39.319-39.309-39.333zM82.141 46.5H71.248a71.234 71.234 0 0 0-.86-8.333h9.693a32.138 32.138 0 0 1 2.06 8.333zm-17.894 0H53.5v-8.333h9.79c.479 2.595.811 5.381.957 8.333zM53.5 31.167V18.8c3.051 1.937 5.969 6.281 8.007 12.367H53.5zm-7-12.367v12.367h-8.008C40.531 25.081 43.45 20.736 46.5 18.8zm0 19.367V46.5H35.752a63.48 63.48 0 0 1 .956-8.333H46.5zM28.75 46.5H17.859a32.058 32.058 0 0 1 2.06-8.333h9.692a71.447 71.447 0 0 0-.861 8.333zm-10.891 7H28.75c.127 2.766.4 5.441.812 8h-9.773a32.03 32.03 0 0 1-1.93-8zm17.893 0H46.5v8h-9.853a63.69 63.69 0 0 1-.895-8zm10.748 15v12.699c-3.105-1.971-6.076-6.438-8.119-12.699H46.5zm7 12.699V68.5h8.118c-2.042 6.261-5.012 10.728-8.118 12.699zm0-19.699v-8h10.747a63.69 63.69 0 0 1-.895 8H53.5zm17.748-8h10.893a32.072 32.072 0 0 1-1.929 8h-9.773c.409-2.559.682-5.234.809-8zm5.009-22.333h-7.444c-1.085-3.745-2.492-7.103-4.153-9.971a32.555 32.555 0 0 1 11.597 9.971zM35.34 21.196c-1.661 2.868-3.067 6.226-4.153 9.971h-7.443a32.535 32.535 0 0 1 11.596-9.971zM23.506 68.5h7.59c1.098 3.877 2.535 7.352 4.244 10.304A32.547 32.547 0 0 1 23.506 68.5zm41.153 10.305c1.709-2.952 3.146-6.428 4.244-10.305h7.591a32.562 32.562 0 0 1-11.835 10.305z"></path></g><!----></svg>